<svg version="1.1" id="Layer_1" xmlns="http://www.w3.org/2000/svg" xmlns:xlink="http://www.w3.org/1999/xlink" x="0px" y="0px"
	 width="100%" viewBox="0 0 464 560" enable-background="new 0 0 464 560" xml:space="preserve">
<path fill="#000000" opacity="1.000000" stroke="none" 
	d="
M254.414337,450.417847 
	C264.585602,438.958893 274.519226,427.760132 284.494202,416.514801 
	C282.890778,412.431519 279.107025,410.818787 276.327911,408.408752 
	C258.480591,392.931610 240.382355,377.744232 222.446304,362.368622 
	C218.727127,359.180328 216.994171,361.297699 215.156006,364.390839 
	C204.874634,381.691528 194.471390,398.920258 184.271774,416.268768 
	C180.958664,421.904053 176.830124,426.884399 172.800217,431.958344 
	C170.586838,434.745148 167.728973,436.502869 164.252136,437.684692 
	C130.215012,449.254242 96.224602,460.961426 62.239544,472.683502 
	C60.215141,473.381744 58.320770,474.486755 56.415760,475.496552 
	C43.434551,482.377594 29.852015,479.683319 20.520323,468.348877 
	C12.464171,458.563721 12.762745,443.885498 21.249231,433.234344 
	C23.484812,430.428497 26.305176,428.634064 29.777689,427.481689 
	C61.840385,416.841644 93.833740,405.991699 125.929192,395.452301 
	C130.835129,393.841309 134.200912,391.273041 136.813385,386.849030 
	C156.170242,354.069611 175.971710,321.548920 194.996353,288.579285 
	C201.203110,277.822937 205.507126,265.969971 210.701508,254.627792 
	C217.561661,239.648346 224.423340,224.669525 231.318359,209.706100 
	C237.934372,195.348114 244.522675,180.976456 251.285294,166.687546 
	C252.931870,163.208466 252.169876,161.611862 248.515854,160.643753 
	C238.551132,158.003616 228.605865,155.276184 218.725235,152.339905 
	C215.070419,151.253815 213.442062,152.244110 212.085190,155.802536 
	C203.552536,178.179520 194.766769,200.459854 186.116058,222.792038 
	C181.259918,235.328400 169.136902,240.018219 157.807770,233.655640 
	C150.207382,229.387177 146.685593,219.682999 150.061157,210.605423 
	C155.684814,195.482391 161.694870,180.503021 167.545181,165.464325 
	C172.732452,152.130020 177.951752,138.808090 183.104828,125.460594 
	C187.536896,113.980621 199.392426,107.650970 211.315277,110.911873 
	C240.514984,118.898033 269.750336,126.778572 298.777374,135.357849 
	C308.682068,138.285324 319.215820,139.954208 327.794647,146.718674 
	C340.052246,156.383896 346.692810,169.611526 352.294250,183.630600 
	C357.785004,197.372482 363.406860,211.061935 368.947449,224.783981 
	C369.569397,226.324219 369.957062,227.977112 371.903198,229.122086 
	C377.145233,226.227661 381.422485,221.766754 386.113098,217.923630 
	C397.704498,208.426529 409.040527,198.618118 420.499573,188.959030 
	C427.423035,183.123047 435.075592,181.811859 443.250732,185.912918 
	C450.234314,189.416245 456.035736,200.436462 455.254364,208.090637 
	C454.844666,212.103546 452.930756,215.325058 449.880463,217.908966 
	C427.017365,237.276413 404.177246,256.671143 381.271637,275.988190 
	C376.763550,279.790009 372.991302,284.529022 366.456512,285.594208 
	C357.050323,287.127441 348.182617,282.647675 344.855652,273.799042 
	C341.400818,264.610413 338.074463,255.373444 334.696167,246.156052 
	C333.961212,244.150803 333.470062,242.001434 331.395416,240.679001 
	C328.567322,241.867172 328.005920,244.703094 326.940704,247.003876 
	C315.547028,271.614166 304.260040,296.273865 292.919922,320.908997 
	C290.830139,325.448792 288.716949,330.037933 285.244720,333.698792 
	C281.744751,337.388885 282.544983,340.209778 286.138428,343.225983 
	C296.203583,351.674530 306.167053,360.244598 316.141174,368.801086 
	C324.977875,376.381805 333.993073,383.772705 342.537750,391.671173 
	C354.983246,403.175385 355.389282,421.056274 344.142487,433.706757 
	C318.383087,462.681030 292.737793,491.756683 267.010559,520.759521 
	C262.704865,525.613464 258.341187,530.427612 253.794189,535.053589 
	C243.197510,545.834229 226.319305,546.385071 215.488449,536.448547 
	C203.835632,525.757935 202.735397,508.756226 213.083679,497.004486 
	C226.725159,481.512878 240.474030,466.115784 254.414337,450.417847 
z"/>
<path fill="#000000" opacity="1.000000" stroke="none" 
	d="
M406.416687,85.881599 
	C412.035858,111.274323 393.239441,139.681412 367.465576,145.256546 
	C334.405823,152.407654 304.292755,129.931549 303.013611,96.106865 
	C301.865631,65.750664 326.652557,43.222263 353.498535,42.525784 
	C379.585571,41.848984 402.341370,60.563522 406.416687,85.881599 
z"/>
</svg>